<?xml version="1.0" encoding="UTF-8" standalone="no"?>
<svg
   viewBox="0 0 149.74438 157.14796"
   version="1.1"
   id="svg744"
   sodipodi:docname="duck.svg"
   width="149.74438"
   height="157.14796"
   inkscape:version="1.2.1 (9c6d41e410, 2022-07-14)"
   xmlns:inkscape="http://www.inkscape.org/namespaces/inkscape"
   xmlns:sodipodi="http://sodipodi.sourceforge.net/DTD/sodipodi-0.dtd"
   xmlns="http://www.w3.org/2000/svg"
   xmlns:svg="http://www.w3.org/2000/svg">
  <defs
     id="defs748" />
  <sodipodi:namedview
     id="namedview746"
     pagecolor="#ffffff"
     bordercolor="#999999"
     borderopacity="1"
     inkscape:showpageshadow="0"
     inkscape:pageopacity="0"
     inkscape:pagecheckerboard="0"
     inkscape:deskcolor="#d1d1d1"
     showgrid="false"
     inkscape:zoom="1.8270833"
     inkscape:cx="303.48917"
     inkscape:cy="228.77993"
     inkscape:window-width="1920"
     inkscape:window-height="1057"
     inkscape:window-x="-8"
     inkscape:window-y="-8"
     inkscape:window-maximized="1"
     inkscape:current-layer="svg744" />
  <g
     fill-rule="evenodd"
     id="g718"
     transform="translate(-16.854635,-11.123272)">
    <path
       d="m 101.75,141.07 c 1.2648,7.1151 -0.19084,15.836 5.8259,21.136 3.4537,2.9133 7.4153,-0.61784 16.814,3.5173 -8.1154,1.514 -20.044,0.70374 -23.833,0.39531 -1.5529,-3.5582 -3.8849,-7.3772 -4.9352,-12.9 -0.67205,-3.5338 -2.4273,-6.8977 -2.3862,-10.564"
       fill="#ff7f00"
       stroke="#000000"
       stroke-width="2"
       id="path714" />
    <path
       d="m 142.75,34.499 c -29.165,4.4013 0.29698,29.176 -2.1972,61.112 -2.1666,27.558 -20.168,43.714 -49.487,50.43 -20.918,4.7918 -61.352,-3.4118 -35.244,-28.37 15.66,-14.971 37.344,-19.492 46.45,-35.972 16.138,-29.204 1.2394,-42.248 9.1338,-60.422 7.3805,-16.991 36.449,-9.0858 31.344,13.221 z"
       fill="#ffffff"
       stroke="#ffffff"
       stroke-width="1.25"
       id="path716" />
  </g>
  <g
     stroke="#000000"
     id="g742"
     transform="translate(-16.854635,-11.123272)">
    <g
       fill-rule="evenodd"
       stroke-width="2"
       id="g732">
      <path
         d="m 141.58,21.198 c 4.6863,6.7819 12.755,11.385 21.353,12.459 3.1939,0.52274 3.8179,5.8135 0.21439,5.4266 -2.2792,-0.4511 -5.178,-0.68961 -7.4927,-0.9663 -6.4604,-1.1474 -12.656,-3.2781 -18.718,-5.595"
         fill="#ff9900"
         id="path720" />
      <g
         fill="#ffffff"
         id="g728">
        <path
           d="m 142.75,34.499 c -29.165,4.4013 0.29698,29.176 -2.1972,61.112 -2.1666,27.558 -20.168,43.714 -49.487,50.43 -20.918,4.7918 -61.352,-3.4118 -35.244,-28.37 15.66,-14.971 37.344,-19.492 46.45,-35.972 16.138,-29.204 1.2394,-42.248 9.1338,-60.422 7.3805,-16.991 36.449,-9.0858 31.344,13.221 z"
           id="path722" />
        <path
           d="m 65.797,137.76 c -6.8852,8.2233 -17.082,12.074 -26.937,14.668 -3.5371,1.5889 -7.4412,2.2415 -11.236,1.406 -3.0005,-0.61511 -6.0012,-1.4849 -8.7909,-2.7794 -2.1057,-1.6851 -0.5453,-4.6634 1.522,-5.4426 2.9168,-1.7561 6.2183,-2.9993 8.4741,-5.7368 2.4661,-2.1384 4.9256,-4.288 7.2848,-6.5559"
           id="path724" />
        <path
           d="m 101.05,83.912 c -8.6036,-3.075 -20.185,0.07941 -29.766,5.7555 -8.0707,4.751 -15.23,10.907 -21.951,17.386 -6.5599,6.6064 -12.161,14.471 -14.77,23.502 -2.6834,2.7739 -4.6448,7.0068 -3.4761,10.875 1.492,3.513 5.7536,1.8597 8.5996,1.8212 22.63,-1.6126 45.686,-7.6938 63.956,-21.647 5.7335,-4.5809 11.877,-9.4167 14.57,-16.51 2.1532,-5.1221 2.0376,-11.801 -2.0825,-15.912 -4.1616,-3.6685 -10.106,-3.4918 -15.08,-5.2695 z"
           id="path726" />
      </g>
      <path
         d="m 74.958,141.74 c 7.0038,-1.5298 4.595,-3.7021 10.044,-1.9497 0.72253,5.1068 2.037,19.968 5.244,22.793 3.6818,3.1056 9.9454,-0.81778 18.223,4.1382 -8.4528,1.0155 -21.667,0.36156 -25.705,0.0328 -1.6554,-3.7932 -3.5444,-8.0137 -5.2612,-13.752 -1.0991,-3.6739 -2.5876,-7.3533 -2.5438,-11.262 z"
         fill="#ff9900"
         id="path730" />
    </g>
    <g
       stroke-dasharray="none"
       stroke-width="1.25"
       id="g740">
      <circle
         cx="132"
         cy="23"
         id="ellipse734"
         r="3" />
      <circle
         cx="184"
         cy="54"
         opacity="0.6"
         id="ellipse736"
         r="0" />
      <circle
         cx="187"
         cy="56"
         opacity="0.6"
         id="ellipse738"
         r="0" />
    </g>
  </g>
</svg>
